# xmcd
#
# Track frame offsets: 
#        150
#        16666
#        36081
#        49479
#        71428
#        90513
#        102880
#        112630
#        126444
#        136113
#        152537
#        174008
#        184211
#        198522
#        221795
#        241954
#        264115
#        269866
#        279881
#        324111
#
# Disc length: 4667 seconds
#
# Revision: 4
# Processed by: cddbd v1.5.2PL0 Copyright (c) Steve Scherf et al.
# Submitted via: ExactAudioCopyFreeDBPlugin 1.0
#
DISCID=0a123914
DTITLE=Leadbelly - Important Recordings:1934-1949 [Disc A] Leadbelly &
DTITLE=The Library of Congress^ 1934-1938
DYEAR=2006
DGENRE=Blues
TTITLE0=Western Cowboy
TTITLE1=Blind Lemon Blues
TTITLE2=Midnight Special
TTITLE3=Irene
TTITLE4=C.C. Rider
TTITLE5=Governor O.K. Allen
TTITLE6=Julie Ann Johnson
TTITLE7=I'm Sorry Mama
TTITLE8=Take a Whiff on Me
TTITLE9=Boll Weevil
TTITLE10=The Titanic
TTITLE11=Green Corn
TTITLE12=Po' Howard
TTITLE13=De Kalb Blues
TTITLE14=Frankie and Albert
TTITLE15=Queen Mary
TTITLE16=The Hindenburg Disaster, Part 1
TTITLE17=The Hindenburg Disaster, Part 2
TTITLE18=Leaving on the Morning Train Blues
TTITLE19=The Bourgeois Blues
EXTD=YEAR: 2006
EXTT0=
EXTT1=
EXTT2=
EXTT3=
EXTT4=
EXTT5=
EXTT6=
EXTT7=
EXTT8=
EXTT9=
EXTT10=
EXTT11=
EXTT12=
EXTT13=
EXTT14=
EXTT15=
EXTT16=
EXTT17=
EXTT18=
EXTT19=
PLAYORDER=
